<?xml version="1.0" encoding="UTF-8" standalone="no"?>
<svg width="334px" height="45px" viewBox="0 0 334 45" version="1.1" xmlns="http://www.w3.org/2000/svg" xmlns:xlink="http://www.w3.org/1999/xlink" xmlns:sketch="http://www.bohemiancoding.com/sketch/ns">
    <title>Tosin AF Portfolio 2</title>
    <description>Created with Sketch (http://www.bohemiancoding.com/sketch)</description>
    <defs></defs>
    <g id="Page-1" stroke="none" stroke-width="1" fill="none" fill-rule="evenodd" sketch:type="MSPage">
        <g id="Artboard-1" sketch:type="MSArtboardGroup" transform="translate(-1866.000000, -523.000000)">
            <g id="Tidbit-Bubble" sketch:type="MSLayerGroup" transform="translate(1866.000000, 523.000000)">
                <g id="&quot;I-love-prog...&quot;" sketch:type="MSShapeGroup">
                    <path d="M311.576238,39.9393835 C311.058748,39.9795449 310.535731,40 310.007937,40 L19.9920635,40 C8.95492042,40 0,31.045695 0,20 C0,8.95187636 8.95075171,0 19.9920635,0 L310.007937,0 C321.04508,0 330,8.954305 330,20 C330,21.1800418 329.897888,22.3361692 329.702023,23.4600285 C329.81212,22.9869609 329.911692,22.5004123 330,22 C330,22 329.051446,28.7829521 330,34 C331.046615,39.7563803 334,45 334,45 C334,45 325.961707,41.8612406 322,41 C318.29504,40.1945739 311,40 311,40 C311,40 311.206225,39.987111 311.576238,39.9393835 Z" id="Rectangle-2" fill="#FF5353"></path>
                    <path d="M32.068,14.59 L29.278,14.59 L29.278,28 L32.068,28 L32.068,14.59 Z M41.824,14.59 L41.824,28 L44.38,28 L44.38,14.59 L41.824,14.59 Z M50.518,18.712 C47.908,18.712 45.802,20.836 45.802,23.464 C45.802,26.056 47.908,28.198 50.518,28.198 C53.128,28.198 55.306,26.056 55.306,23.464 C55.306,20.836 53.128,18.712 50.518,18.712 Z M50.518,25.66 C49.348,25.66 48.394,24.76 48.394,23.464 C48.394,22.186 49.348,21.268 50.518,21.268 C51.76,21.268 52.696,22.186 52.696,23.464 C52.696,24.76 51.76,25.66 50.518,25.66 Z M60.184,23.284 L58.006,18.91 L55.18,18.91 L60.094,28.234 L64.612,18.91 L62.128,18.91 L60.184,23.284 Z M71.38,24.742 C70.966,25.39 70.192,25.66 69.418,25.66 C69.148,25.66 68.896,25.642 68.662,25.552 L73.738,21.916 C73.18,20.224 71.452,18.712 69.202,18.712 C66.592,18.712 64.486,20.836 64.486,23.464 C64.486,26.056 66.682,28.198 69.418,28.198 C71.038,28.198 72.64,27.46 73.414,26.308 L71.38,24.742 Z M67.078,23.464 C67.078,22.186 68.032,21.268 69.202,21.268 C69.688,21.268 70.102,21.43 70.462,21.7 L67.15,24.058 C67.096,23.878 67.078,23.68 67.078,23.464 Z M88.66,24.85 C88.264,25.354 87.652,25.66 86.932,25.66 C85.762,25.66 84.808,24.76 84.808,23.464 C84.808,22.186 85.762,21.268 86.932,21.268 C87.526,21.268 88.12,21.484 88.552,22.078 L90.586,20.494 C89.704,19.414 88.39,18.712 86.932,18.712 C84.322,18.712 82.216,20.836 82.216,23.464 C82.216,26.056 84.322,28.198 86.932,28.198 C88.426,28.198 89.794,27.496 90.658,26.416 L88.66,24.85 Z M95.734,18.712 C93.124,18.712 91.018,20.836 91.018,23.464 C91.018,26.056 93.124,28.198 95.734,28.198 C98.344,28.198 100.522,26.056 100.522,23.464 C100.522,20.836 98.344,18.712 95.734,18.712 Z M95.734,25.66 C94.564,25.66 93.61,24.76 93.61,23.464 C93.61,22.186 94.564,21.268 95.734,21.268 C96.976,21.268 97.912,22.186 97.912,23.464 C97.912,24.76 96.976,25.66 95.734,25.66 Z M110.818,23.464 C110.818,22.258 111.664,21.268 112.78,21.268 C113.806,21.268 114.652,22.078 114.652,23.464 L114.652,28 L117.19,28 L117.19,23.464 C117.19,20.836 115.84,18.712 113.05,18.712 C112.114,18.712 110.674,19 109.81,20.152 C109.27,19.324 108.064,18.712 106.732,18.712 C105.94,18.712 104.914,19.036 104.5,19.54 L104.5,18.91 L101.944,18.91 L101.944,28 L104.5,28 L104.5,23.464 C104.5,22.258 105.346,21.268 106.3,21.268 C107.452,21.268 108.262,21.898 108.262,23.464 L108.262,28 L110.818,28 L110.818,23.464 Z M121.42,32.338 L121.42,27.352 C121.906,27.928 122.824,28.198 123.58,28.198 C126.064,28.198 128.098,26.056 128.098,23.428 C128.098,20.836 126.136,18.712 123.634,18.712 C122.806,18.712 121.816,19.108 121.42,19.54 L121.42,18.91 L118.864,18.91 L118.864,32.338 L121.42,32.338 Z M123.382,21.268 C124.552,21.268 125.506,22.168 125.506,23.446 C125.506,24.742 124.552,25.66 123.382,25.66 C122.194,25.66 121.312,24.742 121.312,23.446 C121.312,22.168 122.194,21.268 123.382,21.268 Z M136.036,24.742 C135.622,25.39 134.848,25.66 134.074,25.66 C133.804,25.66 133.552,25.642 133.318,25.552 L138.394,21.916 C137.836,20.224 136.108,18.712 133.858,18.712 C131.248,18.712 129.142,20.836 129.142,23.464 C129.142,26.056 131.338,28.198 134.074,28.198 C135.694,28.198 137.296,27.46 138.07,26.308 L136.036,24.742 Z M131.734,23.464 C131.734,22.186 132.688,21.268 133.858,21.268 C134.344,21.268 134.758,21.43 135.118,21.7 L131.806,24.058 C131.752,23.878 131.734,23.68 131.734,23.464 Z M148.672,18.91 L142.84,18.91 L142.84,15.868 L140.284,17.722 L140.284,18.91 L138.916,18.91 L138.916,21.268 L140.284,21.268 L140.284,24.238 C140.284,26.596 142.228,28.198 144.946,28.198 L144.946,25.66 C143.776,25.66 142.84,25.174 142.84,24.166 L142.84,21.268 L146.116,21.268 L146.116,28 L148.672,28 L148.672,18.91 Z M147.376,17.308 C148.24,17.308 148.906,16.642 148.906,15.85 C148.906,15.112 148.24,14.446 147.376,14.446 C146.584,14.446 145.9,15.13 145.9,15.85 C145.9,16.642 146.584,17.308 147.376,17.308 Z M159.472,18.91 L153.64,18.91 L153.64,15.868 L151.084,17.722 L151.084,18.91 L149.716,18.91 L149.716,21.268 L151.084,21.268 L151.084,24.238 C151.084,26.596 153.028,28.198 155.746,28.198 L155.746,25.66 C154.576,25.66 153.64,25.174 153.64,24.166 L153.64,21.268 L156.916,21.268 L156.916,28 L159.472,28 L159.472,18.91 Z M158.176,17.308 C159.04,17.308 159.706,16.642 159.706,15.85 C159.706,15.112 159.04,14.446 158.176,14.446 C157.384,14.446 156.7,15.13 156.7,15.85 C156.7,16.642 157.384,17.308 158.176,17.308 Z M165.268,23.284 L163.09,18.91 L160.264,18.91 L165.178,28.234 L169.696,18.91 L167.212,18.91 L165.268,23.284 Z M176.464,24.742 C176.05,25.39 175.276,25.66 174.502,25.66 C174.232,25.66 173.98,25.642 173.746,25.552 L178.822,21.916 C178.264,20.224 176.536,18.712 174.286,18.712 C171.676,18.712 169.57,20.836 169.57,23.464 C169.57,26.056 171.766,28.198 174.502,28.198 C176.122,28.198 177.724,27.46 178.498,26.308 L176.464,24.742 Z M172.162,23.464 C172.162,22.186 173.116,21.268 174.286,21.268 C174.772,21.268 175.186,21.43 175.546,21.7 L172.234,24.058 C172.18,23.878 172.162,23.68 172.162,23.464 Z M190.234,32.338 L190.234,27.352 C190.72,27.928 191.638,28.198 192.394,28.198 C194.878,28.198 196.912,26.056 196.912,23.428 C196.912,20.836 194.95,18.712 192.448,18.712 C191.62,18.712 190.63,19.108 190.234,19.54 L190.234,18.91 L187.678,18.91 L187.678,32.338 L190.234,32.338 Z M192.196,21.268 C193.366,21.268 194.32,22.168 194.32,23.446 C194.32,24.742 193.366,25.66 192.196,25.66 C191.008,25.66 190.126,24.742 190.126,23.446 C190.126,22.168 191.008,21.268 192.196,21.268 Z M203.536,18.748 C203.302,18.712 203.122,18.712 202.906,18.712 C202.204,18.712 201.448,18.946 200.89,19.54 L200.89,18.91 L198.334,18.91 L198.334,28 L200.89,28 L200.89,23.464 C200.89,22.006 201.736,21.268 202.726,21.268 C203.014,21.268 203.284,21.304 203.536,21.394 L203.536,18.748 Z M209.008,18.712 C206.398,18.712 204.292,20.836 204.292,23.464 C204.292,26.056 206.398,28.198 209.008,28.198 C211.618,28.198 213.796,26.056 213.796,23.464 C213.796,20.836 211.618,18.712 209.008,18.712 Z M209.008,25.66 C207.838,25.66 206.884,24.76 206.884,23.464 C206.884,22.186 207.838,21.268 209.008,21.268 C210.25,21.268 211.186,22.186 211.186,23.464 C211.186,24.76 210.25,25.66 209.008,25.66 Z M219.43,29.998 C218.674,29.998 218.008,29.602 217.63,28.972 L215.56,30.466 C216.406,31.708 217.81,32.536 219.43,32.536 C222.004,32.536 224.074,30.448 224.074,27.91 L224.074,18.91 L221.518,18.91 L221.518,19.54 C221.122,19.108 220.114,18.712 219.304,18.712 C216.874,18.712 214.84,20.836 214.84,23.464 C214.84,26.056 216.82,28.198 219.304,28.198 C220.132,28.198 221.122,27.874 221.518,27.352 L221.518,28.072 C221.518,29.152 220.6,29.998 219.43,29.998 Z M219.556,25.66 C218.386,25.66 217.432,24.76 217.432,23.464 C217.432,22.186 218.386,21.268 219.556,21.268 C220.744,21.268 221.626,22.186 221.626,23.464 C221.626,24.76 220.744,25.66 219.556,25.66 Z M231.076,18.748 C230.842,18.712 230.662,18.712 230.446,18.712 C229.744,18.712 228.988,18.946 228.43,19.54 L228.43,18.91 L225.874,18.91 L225.874,28 L228.43,28 L228.43,23.464 C228.43,22.006 229.276,21.268 230.266,21.268 C230.554,21.268 230.824,21.304 231.076,21.394 L231.076,18.748 Z M238.51,18.91 L238.51,19.54 C238.114,19.108 237.106,18.712 236.296,18.712 C233.866,18.712 231.832,20.836 231.832,23.464 C231.832,26.056 233.812,28.198 236.296,28.198 C237.124,28.198 238.114,27.874 238.51,27.352 L238.51,28 L241.066,28 L241.066,18.91 L238.51,18.91 Z M236.548,25.66 C235.378,25.66 234.424,24.76 234.424,23.464 C234.424,22.186 235.378,21.268 236.548,21.268 C237.736,21.268 238.618,22.186 238.618,23.464 C238.618,24.76 237.736,25.66 236.548,25.66 Z M251.74,23.464 C251.74,22.258 252.586,21.268 253.702,21.268 C254.728,21.268 255.574,22.078 255.574,23.464 L255.574,28 L258.112,28 L258.112,23.464 C258.112,20.836 256.762,18.712 253.972,18.712 C253.036,18.712 251.596,19 250.732,20.152 C250.192,19.324 248.986,18.712 247.654,18.712 C246.862,18.712 245.836,19.036 245.422,19.54 L245.422,18.91 L242.866,18.91 L242.866,28 L245.422,28 L245.422,23.464 C245.422,22.258 246.268,21.268 247.222,21.268 C248.374,21.268 249.184,21.898 249.184,23.464 L249.184,28 L251.74,28 L251.74,23.464 Z M268.66,23.464 C268.66,22.258 269.506,21.268 270.622,21.268 C271.648,21.268 272.494,22.078 272.494,23.464 L272.494,28 L275.032,28 L275.032,23.464 C275.032,20.836 273.682,18.712 270.892,18.712 C269.956,18.712 268.516,19 267.652,20.152 C267.112,19.324 265.906,18.712 264.574,18.712 C263.782,18.712 262.756,19.036 262.342,19.54 L262.342,18.91 L259.786,18.91 L259.786,28 L262.342,28 L262.342,23.464 C262.342,22.258 263.188,21.268 264.142,21.268 C265.294,21.268 266.104,21.898 266.104,23.464 L266.104,28 L268.66,28 L268.66,23.464 Z M277.966,17.308 C278.83,17.308 279.496,16.642 279.496,15.85 C279.496,15.112 278.83,14.446 277.966,14.446 C277.174,14.446 276.49,15.13 276.49,15.85 C276.49,16.642 277.174,17.308 277.966,17.308 Z M279.262,18.91 L276.706,18.91 L276.706,28 L279.262,28 L279.262,18.91 Z M290.224,23.464 C290.224,20.836 288.496,18.712 286.012,18.712 C285.184,18.712 284.122,18.964 283.618,19.54 L283.618,18.91 L281.062,18.91 L281.062,28 L283.618,28 L283.618,23.464 C283.618,22.006 284.662,21.268 285.796,21.268 C286.84,21.268 287.686,22.006 287.686,23.464 L287.686,28 L290.224,28 L290.224,23.464 Z M296.11,29.998 C295.354,29.998 294.688,29.602 294.31,28.972 L292.24,30.466 C293.086,31.708 294.49,32.536 296.11,32.536 C298.684,32.536 300.754,30.448 300.754,27.91 L300.754,18.91 L298.198,18.91 L298.198,19.54 C297.802,19.108 296.794,18.712 295.984,18.712 C293.554,18.712 291.52,20.836 291.52,23.464 C291.52,26.056 293.5,28.198 295.984,28.198 C296.812,28.198 297.802,27.874 298.198,27.352 L298.198,28.072 C298.198,29.152 297.28,29.998 296.11,29.998 Z M296.236,25.66 C295.066,25.66 294.112,24.76 294.112,23.464 C294.112,22.186 295.066,21.268 296.236,21.268 C297.424,21.268 298.306,22.186 298.306,23.464 C298.306,24.76 297.424,25.66 296.236,25.66 Z M304.12,25.48 C303.292,25.48 302.734,26.092 302.734,26.866 C302.734,27.604 303.292,28.234 304.12,28.234 C304.966,28.234 305.506,27.604 305.506,26.866 C305.506,26.092 304.948,25.48 304.12,25.48 Z" id="I-love-competitive-p" fill="#FAF4F4"></path>
                </g>
            </g>
        </g>
    </g>
</svg>